<svg width="9" height="15" viewBox="0 0 9 15" fill="none" xmlns="http://www.w3.org/2000/svg">
<path d="M3.71202 14.4096H4.85877L4.86418 13.1709C7.18471 13.0033 8.51536 11.7267 8.52077 9.91463C8.51536 7.99438 6.93048 7.1181 5.26445 6.72323L4.90745 6.63127L4.92909 3.54264C5.79455 3.6941 6.3517 4.21338 6.43824 4.9923H8.36931C8.33686 3.27218 6.98457 2.01726 4.9399 1.82253L4.94531 0.562195H3.79857L3.79316 1.82253C1.76473 2.02808 0.304253 3.27218 0.309663 5.06262C0.309663 6.65291 1.44018 7.56706 3.26306 8.03766L3.74989 8.16207L3.72825 11.4346C2.76001 11.2832 2.06223 10.7314 1.99191 9.75236H0.0175679C0.0932962 11.7808 1.48886 12.987 3.71743 13.1709L3.71202 14.4096ZM4.87499 11.4346L4.89663 8.46498C5.8811 8.75167 6.50856 9.13031 6.51397 9.89841C6.50856 10.699 5.86487 11.2723 4.87499 11.4346ZM3.76071 6.33918C3.01424 6.10118 2.33269 5.70631 2.34351 4.93821C2.34892 4.24042 2.8736 3.69951 3.78234 3.54264L3.76071 6.33918Z" fill="#0D1B39"/>
</svg>
