<svg width="90" height="15" viewBox="0 0 90 15" fill="none" xmlns="http://www.w3.org/2000/svg">
<path d="M10.452 8.77196C10.3009 8.91837 10.2315 9.13012 10.2659 9.33779L10.7845 12.2078C10.8283 12.451 10.7256 12.6972 10.522 12.8378C10.3225 12.9836 10.0571 13.0011 9.83953 12.8845L7.25594 11.537C7.16611 11.4891 7.06636 11.4635 6.96428 11.4605H6.80619C6.75136 11.4687 6.69769 11.4862 6.64869 11.513L4.06453 12.867C3.93678 12.9311 3.79211 12.9539 3.65036 12.9311C3.30503 12.8658 3.07461 12.5368 3.13119 12.1897L3.65036 9.31971C3.68478 9.11029 3.61536 8.89737 3.46428 8.74862L1.35786 6.70695C1.18169 6.53604 1.12044 6.27937 1.20094 6.04779C1.27911 5.81679 1.47861 5.6482 1.71953 5.61029L4.61869 5.1897C4.83919 5.16695 5.03286 5.03279 5.13203 4.83445L6.40953 2.21529C6.43986 2.15695 6.47894 2.10329 6.52619 2.05779L6.57869 2.01695C6.60611 1.98662 6.63761 1.96154 6.67261 1.94112L6.73619 1.91779L6.83536 1.87695H7.08094C7.30028 1.8997 7.49336 2.03095 7.59428 2.22695L8.88869 4.83445C8.98203 5.0252 9.16344 5.15762 9.37286 5.1897L12.272 5.61029C12.517 5.64529 12.7218 5.81445 12.8029 6.04779C12.8793 6.2817 12.8134 6.53837 12.6337 6.70695L10.452 8.77196Z" fill="#F6973F"/>
<path d="M29.452 8.77196C29.3009 8.91837 29.2315 9.13012 29.2659 9.33779L29.7845 12.2078C29.8283 12.451 29.7256 12.6972 29.522 12.8378C29.3225 12.9836 29.0571 13.0011 28.8395 12.8845L26.2559 11.537C26.1661 11.4891 26.0664 11.4635 25.9643 11.4605H25.8062C25.7514 11.4687 25.6977 11.4862 25.6487 11.513L23.0645 12.867C22.9368 12.9311 22.7921 12.9539 22.6504 12.9311C22.305 12.8658 22.0746 12.5368 22.1312 12.1897L22.6504 9.31971C22.6848 9.11029 22.6154 8.89737 22.4643 8.74862L20.3579 6.70695C20.1817 6.53604 20.1204 6.27937 20.2009 6.04779C20.2791 5.81679 20.4786 5.6482 20.7195 5.61029L23.6187 5.1897C23.8392 5.16695 24.0329 5.03279 24.132 4.83445L25.4095 2.21529C25.4399 2.15695 25.4789 2.10329 25.5262 2.05779L25.5787 2.01695C25.6061 1.98662 25.6376 1.96154 25.6726 1.94112L25.7362 1.91779L25.8354 1.87695H26.0809C26.3003 1.8997 26.4934 2.03095 26.5943 2.22695L27.8887 4.83445C27.982 5.0252 28.1634 5.15762 28.3729 5.1897L31.272 5.61029C31.517 5.64529 31.7218 5.81445 31.8029 6.04779C31.8793 6.2817 31.8134 6.53837 31.6337 6.70695L29.452 8.77196Z" fill="#F6973F"/>
<path d="M48.452 8.77196C48.3009 8.91837 48.2315 9.13012 48.2659 9.33779L48.7845 12.2078C48.8283 12.451 48.7256 12.6972 48.522 12.8378C48.3225 12.9836 48.0571 13.0011 47.8395 12.8845L45.2559 11.537C45.1661 11.4891 45.0664 11.4635 44.9643 11.4605H44.8062C44.7514 11.4687 44.6977 11.4862 44.6487 11.513L42.0645 12.867C41.9368 12.9311 41.7921 12.9539 41.6504 12.9311C41.305 12.8658 41.0746 12.5368 41.1312 12.1897L41.6504 9.31971C41.6848 9.11029 41.6154 8.89737 41.4643 8.74862L39.3579 6.70695C39.1817 6.53604 39.1204 6.27937 39.2009 6.04779C39.2791 5.81679 39.4786 5.6482 39.7195 5.61029L42.6187 5.1897C42.8392 5.16695 43.0329 5.03279 43.132 4.83445L44.4095 2.21529C44.4399 2.15695 44.4789 2.10329 44.5262 2.05779L44.5787 2.01695C44.6061 1.98662 44.6376 1.96154 44.6726 1.94112L44.7362 1.91779L44.8354 1.87695H45.0809C45.3003 1.8997 45.4934 2.03095 45.5943 2.22695L46.8887 4.83445C46.982 5.0252 47.1634 5.15762 47.3729 5.1897L50.272 5.61029C50.517 5.64529 50.7218 5.81445 50.8029 6.04779C50.8793 6.2817 50.8134 6.53837 50.6337 6.70695L48.452 8.77196Z" fill="#F6973F"/>
<path d="M67.452 8.77196C67.3009 8.91837 67.2315 9.13012 67.2659 9.33779L67.7845 12.2078C67.8283 12.451 67.7256 12.6972 67.522 12.8378C67.3225 12.9836 67.0571 13.0011 66.8395 12.8845L64.2559 11.537C64.1661 11.4891 64.0664 11.4635 63.9643 11.4605H63.8062C63.7514 11.4687 63.6977 11.4862 63.6487 11.513L61.0645 12.867C60.9368 12.9311 60.7921 12.9539 60.6504 12.9311C60.305 12.8658 60.0746 12.5368 60.1312 12.1897L60.6504 9.31971C60.6848 9.11029 60.6154 8.89737 60.4643 8.74862L58.3579 6.70695C58.1817 6.53604 58.1204 6.27937 58.2009 6.04779C58.2791 5.81679 58.4786 5.6482 58.7195 5.61029L61.6187 5.1897C61.8392 5.16695 62.0329 5.03279 62.132 4.83445L63.4095 2.21529C63.4399 2.15695 63.4789 2.10329 63.5262 2.05779L63.5787 2.01695C63.6061 1.98662 63.6376 1.96154 63.6726 1.94112L63.7362 1.91779L63.8354 1.87695H64.0809C64.3003 1.8997 64.4934 2.03095 64.5943 2.22695L65.8887 4.83445C65.982 5.0252 66.1634 5.15762 66.3729 5.1897L69.272 5.61029C69.517 5.64529 69.7218 5.81445 69.8029 6.04779C69.8793 6.2817 69.8134 6.53837 69.6337 6.70695L67.452 8.77196Z" fill="#F6973F"/>
<path opacity="0.3" d="M86.452 8.77196C86.3009 8.91837 86.2315 9.13012 86.2659 9.33779L86.7845 12.2078C86.8283 12.451 86.7256 12.6972 86.522 12.8378C86.3225 12.9836 86.0571 13.0011 85.8395 12.8845L83.2559 11.537C83.1661 11.4891 83.0664 11.4635 82.9643 11.4605H82.8062C82.7514 11.4687 82.6977 11.4862 82.6487 11.513L80.0645 12.867C79.9368 12.9311 79.7921 12.9539 79.6504 12.9311C79.305 12.8658 79.0746 12.5368 79.1312 12.1897L79.6504 9.31971C79.6848 9.11029 79.6154 8.89737 79.4643 8.74862L77.3579 6.70695C77.1817 6.53604 77.1204 6.27937 77.2009 6.04779C77.2791 5.81679 77.4786 5.6482 77.7195 5.61029L80.6187 5.1897C80.8392 5.16695 81.0329 5.03279 81.132 4.83445L82.4095 2.21529C82.4399 2.15695 82.4789 2.10329 82.5262 2.05779L82.5787 2.01695C82.6061 1.98662 82.6376 1.96154 82.6726 1.94112L82.7362 1.91779L82.8354 1.87695H83.0809C83.3003 1.8997 83.4934 2.03095 83.5943 2.22695L84.8887 4.83445C84.982 5.0252 85.1634 5.15762 85.3729 5.1897L88.272 5.61029C88.517 5.64529 88.7218 5.81445 88.8029 6.04779C88.8793 6.2817 88.8134 6.53837 88.6337 6.70695L86.452 8.77196Z" fill="#F6973F"/>
</svg>
